<svg width="59" height="59" viewBox="0 0 59 59" fill="none" xmlns="http://www.w3.org/2000/svg">
<rect y="0.38089" width="58.619" height="58.619" rx="5.95238" fill="#0ACF83"/>
<mask id="mask0_953_1094" style="mask-type:alpha" maskUnits="userSpaceOnUse" x="0" y="0" width="59" height="59">
<rect y="0.380997" width="58.619" height="58.619" rx="5.95238" fill="#0ACF83"/>
</mask>
<g mask="url(#mask0_953_1094)">
<path d="M37.8538 28.2949C38.9984 32.5664 36.4586 36.9582 32.1812 38.1044C27.9037 39.2505 23.5083 36.7169 22.3638 32.4454C21.2192 28.1739 23.759 23.7821 28.0364 22.6359C32.3139 21.4898 36.7093 24.0234 37.8538 28.2949Z" fill="white"/>
<path fill-rule="evenodd" clip-rule="evenodd" d="M-0.66789 4.77476C-1.75442 5.85998 -1.75503 7.61886 -0.66926 8.70332L12.9634 22.3195C11.1202 26.226 10.5978 30.7789 11.8026 35.2754C14.5079 45.3716 24.897 51.3601 35.0074 48.6511C45.1177 45.942 51.1207 35.5612 48.4154 25.465C45.7102 15.3687 35.321 9.38024 25.2107 12.0893C23.6885 12.4972 22.2594 13.0789 20.9391 13.8075L7.57975 0.464267C6.49398 -0.620194 4.73298 -0.619581 3.64645 0.465638L-0.66789 4.77476ZM32.935 40.917C38.7679 39.3541 42.2312 33.3652 40.6704 27.5404C39.1097 21.7157 33.116 18.2608 27.2831 19.8237C21.4502 21.3866 17.9869 27.3755 19.5477 33.2003C21.1084 39.025 27.1021 42.4799 32.935 40.917Z" fill="white"/>
</g>
</svg>
